<svg width="164" height="20" viewBox="0 0 164 20" fill="none" xmlns="http://www.w3.org/2000/svg">
<path d="M2.5 19H0.25V1H4.19922L20.6992 16.75V1H22.9492V19H19.9492L2.5 2.875V19ZM27.4609 19V1H45.4609V2.875H29.7109V8.875H44.7109V10.75H29.7109V17.125H45.4609V19H27.4609ZM60.3789 9.50781L70.9609 19H67.7734L58.8086 10.9609L50.1484 19H46.9609L57.1914 9.50781L47.7109 1H50.8984L58.75 8.05469L66.3555 1H69.543L60.3789 9.50781ZM93.4609 1V2.875H84.4609V19H82.2109V2.875H73.2109V1H93.4609ZM97.2109 19V1H115.211V2.875H99.4609V8.875H114.461V10.75H99.4609V17.125H115.211V19H97.2109ZM138.836 19H136.586V15.625C136.586 15.0781 136.574 14.6094 136.551 14.2188C136.535 13.8203 136.469 13.4805 136.352 13.1992C136.242 12.918 136.066 12.6914 135.824 12.5195C135.582 12.3477 135.238 12.2148 134.793 12.1211C134.348 12.0273 133.781 11.9648 133.094 11.9336C132.414 11.8945 131.574 11.875 130.574 11.875H120.461V19H118.211V1H130.949C132.324 1 133.48 1.05078 134.418 1.15234C135.363 1.24609 136.141 1.39062 136.75 1.58594C137.367 1.78125 137.84 2.02344 138.168 2.3125C138.504 2.60156 138.746 2.94141 138.895 3.33203C139.051 3.72266 139.141 4.16016 139.164 4.64453C139.195 5.12891 139.211 5.66406 139.211 6.25C139.211 7 139.156 7.66016 139.047 8.23047C138.945 8.79297 138.77 9.27344 138.52 9.67188C138.27 10.0703 137.938 10.3906 137.523 10.6328C137.109 10.8672 136.59 11.0312 135.965 11.125C136.59 11.2188 137.09 11.3828 137.465 11.6172C137.84 11.8516 138.129 12.1562 138.332 12.5312C138.535 12.9062 138.668 13.3516 138.73 13.8672C138.801 14.3828 138.836 14.9688 138.836 15.625V19ZM120.461 10H130.949C131.949 10 132.789 9.98438 133.469 9.95312C134.156 9.91406 134.723 9.84766 135.168 9.75391C135.613 9.66016 135.957 9.52734 136.199 9.35547C136.441 9.18359 136.617 8.95703 136.727 8.67578C136.844 8.39453 136.91 8.05859 136.926 7.66797C136.949 7.26953 136.961 6.79688 136.961 6.25C136.961 5.74219 136.949 5.30469 136.926 4.9375C136.91 4.57031 136.844 4.26172 136.727 4.01172C136.617 3.76172 136.441 3.5625 136.199 3.41406C135.957 3.26562 135.613 3.15234 135.168 3.07422C134.723 2.98828 134.156 2.93359 133.469 2.91016C132.789 2.88672 131.949 2.875 130.949 2.875H120.461V10ZM161.699 6.625C161.699 5.6875 161.598 4.94531 161.395 4.39844C161.191 3.85156 160.855 3.4375 160.387 3.15625C159.918 2.875 159.301 2.69531 158.535 2.61719C157.777 2.53906 156.836 2.5 155.711 2.5H150.449C149.449 2.5 148.605 2.53125 147.918 2.59375C147.238 2.64844 146.676 2.76562 146.23 2.94531C145.785 3.125 145.441 3.38281 145.199 3.71875C144.957 4.05469 144.781 4.5 144.672 5.05469C144.562 5.60938 144.5 6.29297 144.484 7.10547C144.469 7.91016 144.461 8.875 144.461 10C144.461 11.125 144.469 12.0938 144.484 12.9062C144.508 13.7109 144.574 14.3906 144.684 14.9453C144.793 15.5 144.965 15.9453 145.199 16.2812C145.441 16.6172 145.785 16.875 146.23 17.0547C146.676 17.2344 147.238 17.3555 147.918 17.418C148.605 17.4727 149.449 17.5 150.449 17.5H155.711C156.586 17.5 157.34 17.4766 157.973 17.4297C158.605 17.3828 159.145 17.2969 159.59 17.1719C160.035 17.0469 160.395 16.875 160.668 16.6562C160.941 16.4375 161.152 16.1641 161.301 15.8359C161.457 15.5 161.562 15.1016 161.617 14.6406C161.672 14.1719 161.699 13.625 161.699 13H163.949C163.949 13.75 163.902 14.4297 163.809 15.0391C163.715 15.6406 163.547 16.1797 163.305 16.6562C163.07 17.125 162.754 17.5312 162.355 17.875C161.957 18.2188 161.453 18.5039 160.844 18.7305C160.234 18.9492 159.508 19.1094 158.664 19.2109C157.82 19.3203 156.836 19.375 155.711 19.375H150.449C149.074 19.375 147.914 19.2891 146.969 19.1172C146.031 18.9531 145.258 18.7031 144.648 18.3672C144.039 18.0234 143.566 17.5938 143.23 17.0781C142.902 16.5625 142.66 15.957 142.504 15.2617C142.355 14.5664 142.27 13.7812 142.246 12.9062C142.223 12.0312 142.211 11.0625 142.211 10C142.211 8.9375 142.223 7.96875 142.246 7.09375C142.27 6.21875 142.355 5.43359 142.504 4.73828C142.66 4.04297 142.902 3.4375 143.23 2.92188C143.566 2.40625 144.039 1.98047 144.648 1.64453C145.258 1.30078 146.031 1.04688 146.969 0.882812C147.914 0.710938 149.074 0.625 150.449 0.625H155.711C156.836 0.625 157.82 0.679688 158.664 0.789062C159.508 0.890625 160.234 1.05078 160.844 1.26953C161.453 1.48047 161.957 1.75 162.355 2.07812C162.754 2.40625 163.07 2.79297 163.305 3.23828C163.547 3.68359 163.715 4.1875 163.809 4.75C163.902 5.3125 163.949 5.9375 163.949 6.625H161.699Z" fill="#E8E8E8"/>
</svg>
